Coordinates
version=1
nRows=65
nColumns=12
inDegrees=yes

Units are S.I. units (second, meters, Newtons, ...)
Angles are in degrees

endheader
time	SC_y	SC_z	SC_x	AC_y	AC_z	AC_x	GH_y	GH_z	GH_yy	EL_x	PS_y
       0.0              -14.75           33.8          43.25          66.73          4.876         -19.24         -37.36          78.11         -83.83          5.571          29.45
   0.01906              -14.76           33.8          43.25          66.73          4.875         -19.24         -37.37           78.1         -83.81          5.573          29.46
   0.03811              -14.76           33.8          43.25          66.73          4.873         -19.24         -37.39          78.09         -83.78          5.576          29.46
   0.05717              -14.77           33.8          43.25          66.73          4.871         -19.24         -37.41          78.07         -83.75          5.578          29.47
   0.07622              -14.78           33.8          43.25          66.73          4.869         -19.23         -37.42          78.06         -83.72          5.581          29.48
   0.09528              -14.78           33.8          43.25          66.73          4.867         -19.23         -37.44          78.04         -83.69          5.584          29.49
    0.1143              -14.79           33.8          43.25          66.73          4.864         -19.22         -37.46          78.03         -83.66          5.587           29.5
    0.1334               -14.8           33.8          43.25          66.73          4.862         -19.22         -37.49          78.01         -83.62           5.59          29.51
    0.1524              -14.81           33.8          43.25          66.73          4.859         -19.22         -37.51          77.99         -83.58          5.594          29.52
    0.1715              -14.82           33.8          43.25          66.73          4.856         -19.21         -37.54          77.97         -83.54          5.598          29.53
    0.1906              -14.83           33.8          43.25          66.73          4.853         -19.21         -37.57          77.95         -83.49          5.602          29.54
    0.2096              -14.84           33.8          43.24          66.73          4.849          -19.2          -37.6          77.93         -83.45          5.606          29.55
    0.2287              -14.85           33.8          43.24          66.73          4.846         -19.19         -37.63           77.9         -83.39          5.611          29.57
    0.2477              -14.86           33.8          43.24          66.73          4.842         -19.19         -37.66          77.88         -83.34          5.616          29.58
    0.2668              -14.87           33.8          43.24          66.73          4.838         -19.18          -37.7          77.85         -83.28          5.621           29.6
    0.2858              -14.89           33.8          43.24          66.73          4.833         -19.17         -37.74          77.82         -83.21          5.627          29.62
    0.3049               -14.9           33.8          43.24          66.72          4.828         -19.17         -37.79          77.78         -83.14          5.634          29.64
    0.3239              -14.92           33.8          43.23          66.72          4.822         -19.16         -37.83          77.75         -83.06          5.641          29.66
     0.343              -14.94           33.8          43.23          66.72          4.816         -19.15         -37.89          77.71         -82.98          5.649          29.68
    0.3621              -14.96          33.81          43.23          66.72           4.81         -19.14         -37.94          77.66         -82.89          5.657           29.7
    0.3811              -14.98          33.81          43.23          66.72          4.803         -19.12         -38.01          77.61         -82.78          5.667          29.73
    0.4002              -15.01          33.81          43.23          66.72          4.795         -19.11         -38.08          77.56         -82.67          5.677          29.76
    0.4192              -15.04          33.81          43.22          66.72          4.786          -19.1         -38.15           77.5         -82.55          5.688           29.8
    0.4383              -15.07          33.81          43.22          66.72          4.776         -19.08         -38.24          77.44         -82.41          5.701          29.83
    0.4573               -15.1          33.81          43.21          66.71          4.766         -19.06         -38.34          77.37         -82.26          5.715          29.88
    0.4764              -15.14          33.81          43.21          66.71          4.753         -19.04         -38.44          77.28         -82.09           5.73          29.92
    0.4954              -15.18          33.81          43.21          66.71           4.74         -19.02         -38.56          77.19          -81.9          5.748          29.97
    0.5145              -15.23          33.81           43.2          66.71          4.725          -19.0         -38.69          77.09         -81.68          5.767          30.03
    0.5336              -15.28          33.81          43.19           66.7          4.708         -18.97         -38.84          76.98         -81.44           5.79           30.1
    0.5526              -15.34          33.82          43.19           66.7          4.688         -18.94         -39.02          76.85         -81.16          5.815          30.17
    0.5717              -15.41          33.82          43.18           66.7          4.666          -18.9         -39.21           76.7         -80.85          5.843          30.26
    0.5907              -15.49          33.82          43.17          66.69          4.641         -18.86         -39.44          76.53         -80.49          5.876          30.36
    0.6098              -15.58          33.82          43.16          66.69          4.611         -18.81          -39.7          76.33         -80.07          5.915          30.47
    0.6288              -15.69          33.83          43.15          66.68          4.577         -18.76          -40.0           76.1         -79.59          5.959           30.6
    0.6479              -15.81          33.83          43.13          66.68          4.537         -18.69         -40.35          75.83         -79.02          6.011          30.75
     0.667              -15.96          33.83          43.12          66.67           4.49         -18.61         -40.77          75.52         -78.35          6.072          30.93
     0.686              -16.13          33.84           43.1          66.66          4.434         -18.52         -41.26          75.14         -77.56          6.144          31.15
    0.7051              -16.34          33.84          43.07          66.65          4.367         -18.41         -41.85          74.69         -76.61          6.231          31.41
    0.7241              -16.59          33.85          43.04          66.64          4.286         -18.28         -42.57          74.14         -75.45          6.336          31.72
    0.7432               -16.9          33.86          43.01          66.62          4.186         -18.12         -43.44          73.48         -74.05          6.465           32.1
    0.7622              -17.28          33.87          42.97           66.6          4.064         -17.92         -44.52          72.66         -72.31          6.623          32.57
    0.7813              -17.76          33.88          42.91          66.57          3.911         -17.67         -45.87          71.63         -70.15          6.821          33.16
    0.8003              -18.36           33.9          42.84          66.54          3.719         -17.35         -47.57          70.34         -67.42           7.07           33.9
    0.8194              -19.12          33.92          42.76           66.5          3.474         -16.95         -49.73           68.7         -63.96          7.387          34.84
    0.8385              -20.09          33.95          42.64          66.45          3.161         -16.44         -52.49           66.6         -59.52          7.792          36.04
    0.8575              -21.34          33.99           42.5          66.39          2.759         -15.79         -56.03           63.9         -53.83          8.312          37.58
    0.8766              -22.94          34.03          42.32           66.3          2.246         -14.95         -60.56          60.45         -46.55          8.976          39.56
    0.8956              -24.95          34.09          42.09           66.2          1.601          -13.9         -66.25          56.12         -37.41          9.811          42.04
    0.9147               -27.4          34.16          41.81          66.07         0.8146         -12.61         -73.18          50.85         -26.27          10.83          45.06
    0.9337              -30.23          34.24          41.49          65.92       -0.09677         -11.12         -81.22          44.73         -13.35          12.01          48.56
    0.9528               -33.3          34.33          41.14          65.76         -1.084         -9.512         -89.92           38.1         0.6346          13.29          52.35
    0.9718              -36.38          34.42          40.78          65.59         -2.071         -7.901         -98.63          31.48          14.62          14.56          56.14
    0.9909              -39.21           34.5          40.46          65.44         -2.982         -6.412         -106.7          25.36          27.54          15.74          59.65
      1.01              -41.66          34.57          40.18          65.32         -3.768         -5.128         -113.6          20.08          38.68          16.76          62.67
     1.029              -43.67          34.62          39.95          65.21         -4.413         -4.075         -119.3          15.75          47.82           17.6          65.15
     1.048              -45.27          34.67          39.77          65.13         -4.927         -3.237         -123.8          12.31           55.1          18.26          67.12
     1.067              -46.52           34.7          39.63          65.06         -5.328         -2.581         -127.4          9.611          60.79          18.78          68.66
     1.086              -47.49          34.73          39.52          65.01         -5.641          -2.07         -130.1          7.509          65.22          19.19          69.86
     1.105              -48.25          34.75          39.43          64.97         -5.886          -1.67         -132.3          5.868          68.69           19.5           70.8
     1.124              -48.85          34.77          39.36          64.94         -6.078         -1.356         -134.0          4.576          71.42          19.75          71.54
     1.143              -49.33          34.78          39.31          64.91         -6.231         -1.107         -135.3          3.551          73.58          19.95          72.13
     1.162              -49.71          34.79          39.26          64.89         -6.354        -0.9066         -136.4          2.729          75.32          20.11           72.6
     1.181              -50.02           34.8          39.23          64.88         -6.453        -0.7446         -137.3          2.063          76.72          20.24          72.98
     1.201              -50.27          34.81           39.2          64.86         -6.534        -0.6119         -138.0          1.517          77.88          20.34          73.29
      1.22              -50.48          34.82          39.17          64.85         -6.601        -0.5023         -138.6          1.067          78.83          20.43          73.55
